# xmcd
#
# Track frame offsets:
#	150
#	15925
#	32377
#	48235
#	62682
#	79775
#	103702
#	118185
#	135497
#	150045
#	166515
#
# Disc length: 2455 seconds
#
# Revision: 1
# Processed by: cddbd v1.4PL0 Copyright (c) Steve Scherf et al.
# Submitted via: audiograbber 1.82.01
#
DISCID=6d09950b
DTITLE=Pick Up Ramblers - Country 4 You
DYEAR=1900
DGENRE=
TTITLE0=Hey Jungs
TTITLE1=Rednecks White Socks
TTITLE2=Midnight Train
TTITLE3=It`s All Country
TTITLE4=Your Cheatin Heart
TTITLE5=Long Haired Country Boy
TTITLE6=Für Euch
TTITLE7=Ride A Train
TTITLE8=Marie Lavaux
TTITLE9=The Devil Went Down to Georgia
TTITLE10=Amazing Grace
EXTD=
EXTT0=
EXTT1=
EXTT2=
EXTT3=
EXTT4=
EXTT5=
EXTT6=
EXTT7=
EXTT8=
EXTT9=
EXTT10=
PLAYORDER=
